<?xml version="1.0" encoding="utf-8" standalone="no"?>
<!DOCTYPE svg PUBLIC "-//W3C//DTD SVG 1.1//EN"
  "http://www.w3.org/Graphics/SVG/1.1/DTD/svg11.dtd">
<svg xmlns:xlink="http://www.w3.org/1999/xlink" width="360pt" height="288pt" viewBox="0 0 360 288" xmlns="http://www.w3.org/2000/svg" version="1.1">
 <metadata>
  <rdf:RDF xmlns:dc="http://purl.org/dc/elements/1.1/" xmlns:cc="http://creativecommons.org/ns#" xmlns:rdf="http://www.w3.org/1999/02/22-rdf-syntax-ns#">
   <cc:Work>
    <dc:type rdf:resource="http://purl.org/dc/dcmitype/StillImage"/>
    <dc:date>2024-12-04T22:26:15.352943</dc:date>
    <dc:format>image/svg+xml</dc:format>
    <dc:creator>
     <cc:Agent>
      <dc:title>Matplotlib v3.9.1, https://matplotlib.org/</dc:title>
     </cc:Agent>
    </dc:creator>
   </cc:Work>
  </rdf:RDF>
 </metadata>
 <defs>
  <style type="text/css">*{stroke-linejoin: round; stroke-linecap: butt}</style>
 </defs>
 <g id="figure_1">
  <g id="patch_1">
   <path d="M 0 288 
L 360 288 
L 360 0 
L 0 0 
z
" style="fill: #ffffff"/>
  </g>
  <g id="axes_1">
   <g id="patch_2">
    <path d="M 44.66 244.312 
L 349.2 244.312 
L 349.2 10.8 
L 44.66 10.8 
z
" style="fill: #ffffff"/>
   </g>
   <g id="matplotlib.axis_1">
    <g id="xtick_1">
     <g id="line2d_1">
      <path d="M 67.414776 244.312 
L 67.414776 10.8 
" clip-path="url(#p60ee43c90f)" style="fill: none; stroke: #b0b0b0; stroke-width: 0.8; stroke-linecap: square"/>
     </g>
     <g id="line2d_2">
      <defs>
       <path id="m5778835ca0" d="M 0 0 
L 0 3.5 
" style="stroke: #000000; stroke-width: 0.8"/>
      </defs>
      <g>
       <use xlink:href="#m5778835ca0" x="67.414776" y="244.312" style="stroke: #000000; stroke-width: 0.8"/>
      </g>
     </g>
     <g id="text_1">
      <!-- 0 -->
      <g transform="translate(64.233526 258.910438) scale(0.1 -0.1)">
       <defs>
        <path id="DejaVuSans-30" d="M 2034 4250 
Q 1547 4250 1301 3770 
Q 1056 3291 1056 2328 
Q 1056 1369 1301 889 
Q 1547 409 2034 409 
Q 2525 409 2770 889 
Q 3016 1369 3016 2328 
Q 3016 3291 2770 3770 
Q 2525 4250 2034 4250 
z
M 2034 4750 
Q 2819 4750 3233 4129 
Q 3647 3509 3647 2328 
Q 3647 1150 3233 529 
Q 2819 -91 2034 -91 
Q 1250 -91 836 529 
Q 422 1150 422 2328 
Q 422 3509 836 4129 
Q 1250 4750 2034 4750 
z
" transform="scale(0.015625)"/>
       </defs>
       <use xlink:href="#DejaVuSans-30"/>
      </g>
     </g>
    </g>
    <g id="xtick_2">
     <g id="line2d_3">
      <path d="M 111.975022 244.312 
L 111.975022 10.8 
" clip-path="url(#p60ee43c90f)" style="fill: none; stroke: #b0b0b0; stroke-width: 0.8; stroke-linecap: square"/>
     </g>
     <g id="line2d_4">
      <g>
       <use xlink:href="#m5778835ca0" x="111.975022" y="244.312" style="stroke: #000000; stroke-width: 0.8"/>
      </g>
     </g>
     <g id="text_2">
      <!-- 5 -->
      <g transform="translate(108.793772 258.910438) scale(0.1 -0.1)">
       <defs>
        <path id="DejaVuSans-35" d="M 691 4666 
L 3169 4666 
L 3169 4134 
L 1269 4134 
L 1269 2991 
Q 1406 3038 1543 3061 
Q 1681 3084 1819 3084 
Q 2600 3084 3056 2656 
Q 3513 2228 3513 1497 
Q 3513 744 3044 326 
Q 2575 -91 1722 -91 
Q 1428 -91 1123 -41 
Q 819 9 494 109 
L 494 744 
Q 775 591 1075 516 
Q 1375 441 1709 441 
Q 2250 441 2565 725 
Q 2881 1009 2881 1497 
Q 2881 1984 2565 2268 
Q 2250 2553 1709 2553 
Q 1456 2553 1204 2497 
Q 953 2441 691 2322 
L 691 4666 
z
" transform="scale(0.015625)"/>
       </defs>
       <use xlink:href="#DejaVuSans-35"/>
      </g>
     </g>
    </g>
    <g id="xtick_3">
     <g id="line2d_5">
      <path d="M 156.535268 244.312 
L 156.535268 10.8 
" clip-path="url(#p60ee43c90f)" style="fill: none; stroke: #b0b0b0; stroke-width: 0.8; stroke-linecap: square"/>
     </g>
     <g id="line2d_6">
      <g>
       <use xlink:href="#m5778835ca0" x="156.535268" y="244.312" style="stroke: #000000; stroke-width: 0.8"/>
      </g>
     </g>
     <g id="text_3">
      <!-- 10 -->
      <g transform="translate(150.172768 258.910438) scale(0.1 -0.1)">
       <defs>
        <path id="DejaVuSans-31" d="M 794 531 
L 1825 531 
L 1825 4091 
L 703 3866 
L 703 4441 
L 1819 4666 
L 2450 4666 
L 2450 531 
L 3481 531 
L 3481 0 
L 794 0 
L 794 531 
z
" transform="scale(0.015625)"/>
       </defs>
       <use xlink:href="#DejaVuSans-31"/>
       <use xlink:href="#DejaVuSans-30" x="63.623047"/>
      </g>
     </g>
    </g>
    <g id="xtick_4">
     <g id="line2d_7">
      <path d="M 201.095514 244.312 
L 201.095514 10.8 
" clip-path="url(#p60ee43c90f)" style="fill: none; stroke: #b0b0b0; stroke-width: 0.8; stroke-linecap: square"/>
     </g>
     <g id="line2d_8">
      <g>
       <use xlink:href="#m5778835ca0" x="201.095514" y="244.312" style="stroke: #000000; stroke-width: 0.8"/>
      </g>
     </g>
     <g id="text_4">
      <!-- 15 -->
      <g transform="translate(194.733014 258.910438) scale(0.1 -0.1)">
       <use xlink:href="#DejaVuSans-31"/>
       <use xlink:href="#DejaVuSans-35" x="63.623047"/>
      </g>
     </g>
    </g>
    <g id="xtick_5">
     <g id="line2d_9">
      <path d="M 245.65576 244.312 
L 245.65576 10.8 
" clip-path="url(#p60ee43c90f)" style="fill: none; stroke: #b0b0b0; stroke-width: 0.8; stroke-linecap: square"/>
     </g>
     <g id="line2d_10">
      <g>
       <use xlink:href="#m5778835ca0" x="245.65576" y="244.312" style="stroke: #000000; stroke-width: 0.8"/>
      </g>
     </g>
     <g id="text_5">
      <!-- 20 -->
      <g transform="translate(239.29326 258.910438) scale(0.1 -0.1)">
       <defs>
        <path id="DejaVuSans-32" d="M 1228 531 
L 3431 531 
L 3431 0 
L 469 0 
L 469 531 
Q 828 903 1448 1529 
Q 2069 2156 2228 2338 
Q 2531 2678 2651 2914 
Q 2772 3150 2772 3378 
Q 2772 3750 2511 3984 
Q 2250 4219 1831 4219 
Q 1534 4219 1204 4116 
Q 875 4013 500 3803 
L 500 4441 
Q 881 4594 1212 4672 
Q 1544 4750 1819 4750 
Q 2544 4750 2975 4387 
Q 3406 4025 3406 3419 
Q 3406 3131 3298 2873 
Q 3191 2616 2906 2266 
Q 2828 2175 2409 1742 
Q 1991 1309 1228 531 
z
" transform="scale(0.015625)"/>
       </defs>
       <use xlink:href="#DejaVuSans-32"/>
       <use xlink:href="#DejaVuSans-30" x="63.623047"/>
      </g>
     </g>
    </g>
    <g id="xtick_6">
     <g id="line2d_11">
      <path d="M 290.216006 244.312 
L 290.216006 10.8 
" clip-path="url(#p60ee43c90f)" style="fill: none; stroke: #b0b0b0; stroke-width: 0.8; stroke-linecap: square"/>
     </g>
     <g id="line2d_12">
      <g>
       <use xlink:href="#m5778835ca0" x="290.216006" y="244.312" style="stroke: #000000; stroke-width: 0.8"/>
      </g>
     </g>
     <g id="text_6">
      <!-- 25 -->
      <g transform="translate(283.853506 258.910438) scale(0.1 -0.1)">
       <use xlink:href="#DejaVuSans-32"/>
       <use xlink:href="#DejaVuSans-35" x="63.623047"/>
      </g>
     </g>
    </g>
    <g id="xtick_7">
     <g id="line2d_13">
      <path d="M 334.776252 244.312 
L 334.776252 10.8 
" clip-path="url(#p60ee43c90f)" style="fill: none; stroke: #b0b0b0; stroke-width: 0.8; stroke-linecap: square"/>
     </g>
     <g id="line2d_14">
      <g>
       <use xlink:href="#m5778835ca0" x="334.776252" y="244.312" style="stroke: #000000; stroke-width: 0.8"/>
      </g>
     </g>
     <g id="text_7">
      <!-- 30 -->
      <g transform="translate(328.413752 258.910438) scale(0.1 -0.1)">
       <defs>
        <path id="DejaVuSans-33" d="M 2597 2516 
Q 3050 2419 3304 2112 
Q 3559 1806 3559 1356 
Q 3559 666 3084 287 
Q 2609 -91 1734 -91 
Q 1441 -91 1130 -33 
Q 819 25 488 141 
L 488 750 
Q 750 597 1062 519 
Q 1375 441 1716 441 
Q 2309 441 2620 675 
Q 2931 909 2931 1356 
Q 2931 1769 2642 2001 
Q 2353 2234 1838 2234 
L 1294 2234 
L 1294 2753 
L 1863 2753 
Q 2328 2753 2575 2939 
Q 2822 3125 2822 3475 
Q 2822 3834 2567 4026 
Q 2313 4219 1838 4219 
Q 1578 4219 1281 4162 
Q 984 4106 628 3988 
L 628 4550 
Q 988 4650 1302 4700 
Q 1616 4750 1894 4750 
Q 2613 4750 3031 4423 
Q 3450 4097 3450 3541 
Q 3450 3153 3228 2886 
Q 3006 2619 2597 2516 
z
" transform="scale(0.015625)"/>
       </defs>
       <use xlink:href="#DejaVuSans-33"/>
       <use xlink:href="#DejaVuSans-30" x="63.623047"/>
      </g>
     </g>
    </g>
    <g id="text_8">
     <!-- $E_s/N_0$ -->
     <g transform="translate(183.98 272.588563) scale(0.1 -0.1)">
      <defs>
       <path id="DejaVuSans-Oblique-45" d="M 1081 4666 
L 4031 4666 
L 3928 4134 
L 1606 4134 
L 1338 2753 
L 3566 2753 
L 3463 2222 
L 1234 2222 
L 909 531 
L 3284 531 
L 3181 0 
L 172 0 
L 1081 4666 
z
" transform="scale(0.015625)"/>
       <path id="DejaVuSans-Oblique-73" d="M 3200 3397 
L 3091 2853 
Q 2863 2978 2609 3040 
Q 2356 3103 2088 3103 
Q 1634 3103 1373 2948 
Q 1113 2794 1113 2528 
Q 1113 2219 1719 2053 
Q 1766 2041 1788 2034 
L 1972 1978 
Q 2547 1819 2739 1644 
Q 2931 1469 2931 1166 
Q 2931 609 2489 259 
Q 2047 -91 1331 -91 
Q 1053 -91 747 -37 
Q 441 16 72 128 
L 184 722 
Q 500 559 806 475 
Q 1113 391 1394 391 
Q 1816 391 2080 572 
Q 2344 753 2344 1031 
Q 2344 1331 1650 1516 
L 1591 1531 
L 1394 1581 
Q 956 1697 753 1886 
Q 550 2075 550 2369 
Q 550 2928 970 3256 
Q 1391 3584 2113 3584 
Q 2397 3584 2667 3537 
Q 2938 3491 3200 3397 
z
" transform="scale(0.015625)"/>
       <path id="DejaVuSans-2f" d="M 1625 4666 
L 2156 4666 
L 531 -594 
L 0 -594 
L 1625 4666 
z
" transform="scale(0.015625)"/>
       <path id="DejaVuSans-Oblique-4e" d="M 1081 4666 
L 1931 4666 
L 3219 666 
L 4000 4666 
L 4616 4666 
L 3706 0 
L 2853 0 
L 1569 4025 
L 788 0 
L 172 0 
L 1081 4666 
z
" transform="scale(0.015625)"/>
      </defs>
      <use xlink:href="#DejaVuSans-Oblique-45" transform="translate(0 0.09375)"/>
      <use xlink:href="#DejaVuSans-Oblique-73" transform="translate(63.183594 -16.3125) scale(0.7)"/>
      <use xlink:href="#DejaVuSans-2f" transform="translate(102.387695 0.09375)"/>
      <use xlink:href="#DejaVuSans-Oblique-4e" transform="translate(136.079102 0.09375)"/>
      <use xlink:href="#DejaVuSans-30" transform="translate(210.883789 -16.3125) scale(0.7)"/>
     </g>
    </g>
   </g>
   <g id="matplotlib.axis_2">
    <g id="ytick_1">
     <g id="line2d_15">
      <path d="M 44.66 236.755818 
L 349.2 236.755818 
" clip-path="url(#p60ee43c90f)" style="fill: none; stroke: #b0b0b0; stroke-width: 0.8; stroke-linecap: square"/>
     </g>
     <g id="line2d_16">
      <defs>
       <path id="m89119ead15" d="M 0 0 
L -3.5 0 
" style="stroke: #000000; stroke-width: 0.8"/>
      </defs>
      <g>
       <use xlink:href="#m89119ead15" x="44.66" y="236.755818" style="stroke: #000000; stroke-width: 0.8"/>
      </g>
     </g>
     <g id="text_9">
      <!-- 30 -->
      <g transform="translate(24.935 240.555036) scale(0.1 -0.1)">
       <use xlink:href="#DejaVuSans-33"/>
       <use xlink:href="#DejaVuSans-30" x="63.623047"/>
      </g>
     </g>
    </g>
    <g id="ytick_2">
     <g id="line2d_17">
      <path d="M 44.66 201.088151 
L 349.2 201.088151 
" clip-path="url(#p60ee43c90f)" style="fill: none; stroke: #b0b0b0; stroke-width: 0.8; stroke-linecap: square"/>
     </g>
     <g id="line2d_18">
      <g>
       <use xlink:href="#m89119ead15" x="44.66" y="201.088151" style="stroke: #000000; stroke-width: 0.8"/>
      </g>
     </g>
     <g id="text_10">
      <!-- 40 -->
      <g transform="translate(24.935 204.887369) scale(0.1 -0.1)">
       <defs>
        <path id="DejaVuSans-34" d="M 2419 4116 
L 825 1625 
L 2419 1625 
L 2419 4116 
z
M 2253 4666 
L 3047 4666 
L 3047 1625 
L 3713 1625 
L 3713 1100 
L 3047 1100 
L 3047 0 
L 2419 0 
L 2419 1100 
L 313 1100 
L 313 1709 
L 2253 4666 
z
" transform="scale(0.015625)"/>
       </defs>
       <use xlink:href="#DejaVuSans-34"/>
       <use xlink:href="#DejaVuSans-30" x="63.623047"/>
      </g>
     </g>
    </g>
    <g id="ytick_3">
     <g id="line2d_19">
      <path d="M 44.66 165.420484 
L 349.2 165.420484 
" clip-path="url(#p60ee43c90f)" style="fill: none; stroke: #b0b0b0; stroke-width: 0.8; stroke-linecap: square"/>
     </g>
     <g id="line2d_20">
      <g>
       <use xlink:href="#m89119ead15" x="44.66" y="165.420484" style="stroke: #000000; stroke-width: 0.8"/>
      </g>
     </g>
     <g id="text_11">
      <!-- 50 -->
      <g transform="translate(24.935 169.219703) scale(0.1 -0.1)">
       <use xlink:href="#DejaVuSans-35"/>
       <use xlink:href="#DejaVuSans-30" x="63.623047"/>
      </g>
     </g>
    </g>
    <g id="ytick_4">
     <g id="line2d_21">
      <path d="M 44.66 129.752817 
L 349.2 129.752817 
" clip-path="url(#p60ee43c90f)" style="fill: none; stroke: #b0b0b0; stroke-width: 0.8; stroke-linecap: square"/>
     </g>
     <g id="line2d_22">
      <g>
       <use xlink:href="#m89119ead15" x="44.66" y="129.752817" style="stroke: #000000; stroke-width: 0.8"/>
      </g>
     </g>
     <g id="text_12">
      <!-- 60 -->
      <g transform="translate(24.935 133.552036) scale(0.1 -0.1)">
       <defs>
        <path id="DejaVuSans-36" d="M 2113 2584 
Q 1688 2584 1439 2293 
Q 1191 2003 1191 1497 
Q 1191 994 1439 701 
Q 1688 409 2113 409 
Q 2538 409 2786 701 
Q 3034 994 3034 1497 
Q 3034 2003 2786 2293 
Q 2538 2584 2113 2584 
z
M 3366 4563 
L 3366 3988 
Q 3128 4100 2886 4159 
Q 2644 4219 2406 4219 
Q 1781 4219 1451 3797 
Q 1122 3375 1075 2522 
Q 1259 2794 1537 2939 
Q 1816 3084 2150 3084 
Q 2853 3084 3261 2657 
Q 3669 2231 3669 1497 
Q 3669 778 3244 343 
Q 2819 -91 2113 -91 
Q 1303 -91 875 529 
Q 447 1150 447 2328 
Q 447 3434 972 4092 
Q 1497 4750 2381 4750 
Q 2619 4750 2861 4703 
Q 3103 4656 3366 4563 
z
" transform="scale(0.015625)"/>
       </defs>
       <use xlink:href="#DejaVuSans-36"/>
       <use xlink:href="#DejaVuSans-30" x="63.623047"/>
      </g>
     </g>
    </g>
    <g id="ytick_5">
     <g id="line2d_23">
      <path d="M 44.66 94.08515 
L 349.2 94.08515 
" clip-path="url(#p60ee43c90f)" style="fill: none; stroke: #b0b0b0; stroke-width: 0.8; stroke-linecap: square"/>
     </g>
     <g id="line2d_24">
      <g>
       <use xlink:href="#m89119ead15" x="44.66" y="94.08515" style="stroke: #000000; stroke-width: 0.8"/>
      </g>
     </g>
     <g id="text_13">
      <!-- 70 -->
      <g transform="translate(24.935 97.884369) scale(0.1 -0.1)">
       <defs>
        <path id="DejaVuSans-37" d="M 525 4666 
L 3525 4666 
L 3525 4397 
L 1831 0 
L 1172 0 
L 2766 4134 
L 525 4134 
L 525 4666 
z
" transform="scale(0.015625)"/>
       </defs>
       <use xlink:href="#DejaVuSans-37"/>
       <use xlink:href="#DejaVuSans-30" x="63.623047"/>
      </g>
     </g>
    </g>
    <g id="ytick_6">
     <g id="line2d_25">
      <path d="M 44.66 58.417483 
L 349.2 58.417483 
" clip-path="url(#p60ee43c90f)" style="fill: none; stroke: #b0b0b0; stroke-width: 0.8; stroke-linecap: square"/>
     </g>
     <g id="line2d_26">
      <g>
       <use xlink:href="#m89119ead15" x="44.66" y="58.417483" style="stroke: #000000; stroke-width: 0.8"/>
      </g>
     </g>
     <g id="text_14">
      <!-- 80 -->
      <g transform="translate(24.935 62.216702) scale(0.1 -0.1)">
       <defs>
        <path id="DejaVuSans-38" d="M 2034 2216 
Q 1584 2216 1326 1975 
Q 1069 1734 1069 1313 
Q 1069 891 1326 650 
Q 1584 409 2034 409 
Q 2484 409 2743 651 
Q 3003 894 3003 1313 
Q 3003 1734 2745 1975 
Q 2488 2216 2034 2216 
z
M 1403 2484 
Q 997 2584 770 2862 
Q 544 3141 544 3541 
Q 544 4100 942 4425 
Q 1341 4750 2034 4750 
Q 2731 4750 3128 4425 
Q 3525 4100 3525 3541 
Q 3525 3141 3298 2862 
Q 3072 2584 2669 2484 
Q 3125 2378 3379 2068 
Q 3634 1759 3634 1313 
Q 3634 634 3220 271 
Q 2806 -91 2034 -91 
Q 1263 -91 848 271 
Q 434 634 434 1313 
Q 434 1759 690 2068 
Q 947 2378 1403 2484 
z
M 1172 3481 
Q 1172 3119 1398 2916 
Q 1625 2713 2034 2713 
Q 2441 2713 2670 2916 
Q 2900 3119 2900 3481 
Q 2900 3844 2670 4047 
Q 2441 4250 2034 4250 
Q 1625 4250 1398 4047 
Q 1172 3844 1172 3481 
z
" transform="scale(0.015625)"/>
       </defs>
       <use xlink:href="#DejaVuSans-38"/>
       <use xlink:href="#DejaVuSans-30" x="63.623047"/>
      </g>
     </g>
    </g>
    <g id="ytick_7">
     <g id="line2d_27">
      <path d="M 44.66 22.749816 
L 349.2 22.749816 
" clip-path="url(#p60ee43c90f)" style="fill: none; stroke: #b0b0b0; stroke-width: 0.8; stroke-linecap: square"/>
     </g>
     <g id="line2d_28">
      <g>
       <use xlink:href="#m89119ead15" x="44.66" y="22.749816" style="stroke: #000000; stroke-width: 0.8"/>
      </g>
     </g>
     <g id="text_15">
      <!-- 90 -->
      <g transform="translate(24.935 26.549035) scale(0.1 -0.1)">
       <defs>
        <path id="DejaVuSans-39" d="M 703 97 
L 703 672 
Q 941 559 1184 500 
Q 1428 441 1663 441 
Q 2288 441 2617 861 
Q 2947 1281 2994 2138 
Q 2813 1869 2534 1725 
Q 2256 1581 1919 1581 
Q 1219 1581 811 2004 
Q 403 2428 403 3163 
Q 403 3881 828 4315 
Q 1253 4750 1959 4750 
Q 2769 4750 3195 4129 
Q 3622 3509 3622 2328 
Q 3622 1225 3098 567 
Q 2575 -91 1691 -91 
Q 1453 -91 1209 -44 
Q 966 3 703 97 
z
M 1959 2075 
Q 2384 2075 2632 2365 
Q 2881 2656 2881 3163 
Q 2881 3666 2632 3958 
Q 2384 4250 1959 4250 
Q 1534 4250 1286 3958 
Q 1038 3666 1038 3163 
Q 1038 2656 1286 2365 
Q 1534 2075 1959 2075 
z
" transform="scale(0.015625)"/>
       </defs>
       <use xlink:href="#DejaVuSans-39"/>
       <use xlink:href="#DejaVuSans-30" x="63.623047"/>
      </g>
     </g>
    </g>
    <g id="text_16">
     <!-- Accuracy (%) -->
     <g transform="translate(18.855313 160.625531) rotate(-90) scale(0.1 -0.1)">
      <defs>
       <path id="DejaVuSans-41" d="M 2188 4044 
L 1331 1722 
L 3047 1722 
L 2188 4044 
z
M 1831 4666 
L 2547 4666 
L 4325 0 
L 3669 0 
L 3244 1197 
L 1141 1197 
L 716 0 
L 50 0 
L 1831 4666 
z
" transform="scale(0.015625)"/>
       <path id="DejaVuSans-63" d="M 3122 3366 
L 3122 2828 
Q 2878 2963 2633 3030 
Q 2388 3097 2138 3097 
Q 1578 3097 1268 2742 
Q 959 2388 959 1747 
Q 959 1106 1268 751 
Q 1578 397 2138 397 
Q 2388 397 2633 464 
Q 2878 531 3122 666 
L 3122 134 
Q 2881 22 2623 -34 
Q 2366 -91 2075 -91 
Q 1284 -91 818 406 
Q 353 903 353 1747 
Q 353 2603 823 3093 
Q 1294 3584 2113 3584 
Q 2378 3584 2631 3529 
Q 2884 3475 3122 3366 
z
" transform="scale(0.015625)"/>
       <path id="DejaVuSans-75" d="M 544 1381 
L 544 3500 
L 1119 3500 
L 1119 1403 
Q 1119 906 1312 657 
Q 1506 409 1894 409 
Q 2359 409 2629 706 
Q 2900 1003 2900 1516 
L 2900 3500 
L 3475 3500 
L 3475 0 
L 2900 0 
L 2900 538 
Q 2691 219 2414 64 
Q 2138 -91 1772 -91 
Q 1169 -91 856 284 
Q 544 659 544 1381 
z
M 1991 3584 
L 1991 3584 
z
" transform="scale(0.015625)"/>
       <path id="DejaVuSans-72" d="M 2631 2963 
Q 2534 3019 2420 3045 
Q 2306 3072 2169 3072 
Q 1681 3072 1420 2755 
Q 1159 2438 1159 1844 
L 1159 0 
L 581 0 
L 581 3500 
L 1159 3500 
L 1159 2956 
Q 1341 3275 1631 3429 
Q 1922 3584 2338 3584 
Q 2397 3584 2469 3576 
Q 2541 3569 2628 3553 
L 2631 2963 
z
" transform="scale(0.015625)"/>
       <path id="DejaVuSans-61" d="M 2194 1759 
Q 1497 1759 1228 1600 
Q 959 1441 959 1056 
Q 959 750 1161 570 
Q 1363 391 1709 391 
Q 2188 391 2477 730 
Q 2766 1069 2766 1631 
L 2766 1759 
L 2194 1759 
z
M 3341 1997 
L 3341 0 
L 2766 0 
L 2766 531 
Q 2569 213 2275 61 
Q 1981 -91 1556 -91 
Q 1019 -91 701 211 
Q 384 513 384 1019 
Q 384 1609 779 1909 
Q 1175 2209 1959 2209 
L 2766 2209 
L 2766 2266 
Q 2766 2663 2505 2880 
Q 2244 3097 1772 3097 
Q 1472 3097 1187 3025 
Q 903 2953 641 2809 
L 641 3341 
Q 956 3463 1253 3523 
Q 1550 3584 1831 3584 
Q 2591 3584 2966 3190 
Q 3341 2797 3341 1997 
z
" transform="scale(0.015625)"/>
       <path id="DejaVuSans-79" d="M 2059 -325 
Q 1816 -950 1584 -1140 
Q 1353 -1331 966 -1331 
L 506 -1331 
L 506 -850 
L 844 -850 
Q 1081 -850 1212 -737 
Q 1344 -625 1503 -206 
L 1606 56 
L 191 3500 
L 800 3500 
L 1894 763 
L 2988 3500 
L 3597 3500 
L 2059 -325 
z
" transform="scale(0.015625)"/>
       <path id="DejaVuSans-20" transform="scale(0.015625)"/>
       <path id="DejaVuSans-28" d="M 1984 4856 
Q 1566 4138 1362 3434 
Q 1159 2731 1159 2009 
Q 1159 1288 1364 580 
Q 1569 -128 1984 -844 
L 1484 -844 
Q 1016 -109 783 600 
Q 550 1309 550 2009 
Q 550 2706 781 3412 
Q 1013 4119 1484 4856 
L 1984 4856 
z
" transform="scale(0.015625)"/>
       <path id="DejaVuSans-25" d="M 4653 2053 
Q 4381 2053 4226 1822 
Q 4072 1591 4072 1178 
Q 4072 772 4226 539 
Q 4381 306 4653 306 
Q 4919 306 5073 539 
Q 5228 772 5228 1178 
Q 5228 1588 5073 1820 
Q 4919 2053 4653 2053 
z
M 4653 2450 
Q 5147 2450 5437 2106 
Q 5728 1763 5728 1178 
Q 5728 594 5436 251 
Q 5144 -91 4653 -91 
Q 4153 -91 3862 251 
Q 3572 594 3572 1178 
Q 3572 1766 3864 2108 
Q 4156 2450 4653 2450 
z
M 1428 4353 
Q 1159 4353 1004 4120 
Q 850 3888 850 3481 
Q 850 3069 1003 2837 
Q 1156 2606 1428 2606 
Q 1700 2606 1854 2837 
Q 2009 3069 2009 3481 
Q 2009 3884 1853 4118 
Q 1697 4353 1428 4353 
z
M 4250 4750 
L 4750 4750 
L 1831 -91 
L 1331 -91 
L 4250 4750 
z
M 1428 4750 
Q 1922 4750 2215 4408 
Q 2509 4066 2509 3481 
Q 2509 2891 2217 2550 
Q 1925 2209 1428 2209 
Q 931 2209 642 2551 
Q 353 2894 353 3481 
Q 353 4063 643 4406 
Q 934 4750 1428 4750 
z
" transform="scale(0.015625)"/>
       <path id="DejaVuSans-29" d="M 513 4856 
L 1013 4856 
Q 1481 4119 1714 3412 
Q 1947 2706 1947 2009 
Q 1947 1309 1714 600 
Q 1481 -109 1013 -844 
L 513 -844 
Q 928 -128 1133 580 
Q 1338 1288 1338 2009 
Q 1338 2731 1133 3434 
Q 928 4138 513 4856 
z
" transform="scale(0.015625)"/>
      </defs>
      <use xlink:href="#DejaVuSans-41"/>
      <use xlink:href="#DejaVuSans-63" x="66.658203"/>
      <use xlink:href="#DejaVuSans-63" x="121.638672"/>
      <use xlink:href="#DejaVuSans-75" x="176.619141"/>
      <use xlink:href="#DejaVuSans-72" x="239.998047"/>
      <use xlink:href="#DejaVuSans-61" x="281.111328"/>
      <use xlink:href="#DejaVuSans-63" x="342.390625"/>
      <use xlink:href="#DejaVuSans-79" x="397.371094"/>
      <use xlink:href="#DejaVuSans-20" x="456.550781"/>
      <use xlink:href="#DejaVuSans-28" x="488.337891"/>
      <use xlink:href="#DejaVuSans-25" x="527.351562"/>
      <use xlink:href="#DejaVuSans-29" x="622.371094"/>
     </g>
    </g>
   </g>
   <g id="line2d_29">
    <path d="M 58.502727 169.52035 
L 67.414776 153.604904 
L 76.326826 139.494029 
L 85.238875 127.06355 
L 94.150924 116.670572 
L 103.062973 108.433861 
L 111.975022 100.537081 
L 120.887072 94.928175 
L 129.799121 90.040776 
L 138.71117 85.297856 
L 147.623219 81.593658 
L 156.535268 76.643098 
L 165.447318 72.784118 
L 174.359367 70.162067 
L 183.271416 68.113345 
L 192.183465 65.195453 
L 201.095514 62.036837 
L 210.007564 58.778624 
L 218.919613 57.163756 
L 227.831662 55.317051 
L 236.743711 53.662087 
L 245.65576 51.257257 
L 254.56781 49.499659 
L 263.479859 49.623286 
L 272.391908 49.246507 
L 281.303957 48.157583 
L 290.216006 48.303126 
L 299.128056 48.000068 
L 308.040105 47.860935 
L 316.952154 48.197585 
L 325.864203 47.430404 
L 334.776252 47.029831 
" clip-path="url(#p60ee43c90f)" style="fill: none; stroke-dasharray: 6,3,1.5,3,1.5,3; stroke-dashoffset: 0; stroke: #1f77b4; stroke-width: 1.5"/>
   </g>
   <g id="line2d_30">
    <path d="M 58.686618 233.697818 
L 61.552284 229.125928 
L 64.417898 224.717635 
L 67.132711 220.475194 
L 69.847531 216.211226 
L 72.562352 211.947259 
L 75.277158 207.726343 
L 77.991957 203.526954 
L 80.706749 199.349091 
L 83.421535 195.192754 
L 86.136285 191.144047 
L 88.851022 187.138392 
L 91.716542 183.016396 
L 94.732837 178.810347 
L 97.899941 174.410464 
L 101.217748 170.146095 
L 104.535554 165.881725 
L 107.853338 161.687805 
L 111.171048 157.722843 
L 114.488695 153.951616 
L 117.806296 150.321286 
L 121.12384 146.867079 
L 124.441338 143.55377 
L 127.758797 140.363746 
L 131.07621 137.31462 
L 134.393554 134.47684 
L 137.710881 131.691898 
L 141.028151 129.083077 
L 144.345387 126.57993 
L 147.662577 124.217681 
L 150.97975 121.908268 
L 154.296878 119.739753 
L 157.613965 117.694524 
L 160.93103 115.719744 
L 164.248072 113.815412 
L 167.565079 112.016754 
L 170.882081 110.235708 
L 174.199043 108.577948 
L 177.515999 106.9378 
L 180.832927 105.385713 
L 184.149849 103.851238 
L 187.466737 102.422437 
L 190.78363 100.976023 
L 194.100512 99.564834 
L 197.417388 98.171257 
L 200.734236 96.865741 
L 204.051084 95.560225 
L 207.367914 94.307546 
L 210.684745 93.054867 
L 214.001553 91.872637 
L 217.318366 90.672794 
L 220.635168 89.508176 
L 223.951942 88.431619 
L 227.268727 87.319838 
L 230.585472 86.331342 
L 233.90224 85.272397 
L 237.218962 84.354351 
L 240.535696 83.401079 
L 243.852395 82.553481 
L 247.169089 81.723495 
L 250.485759 80.963959 
L 253.802407 80.274871 
L 257.119055 79.585783 
L 260.435652 79.055205 
L 263.752266 78.47179 
L 267.068828 78.046885 
L 270.385373 77.674817 
L 273.701884 77.408423 
L 277.018418 77.071579 
L 280.334855 77.034144 
L 283.65132 76.908647 
L 286.967768 76.835987 
L 290.284182 76.869 
L 293.600556 77.025299 
L 296.916982 77.023087 
L 300.233344 77.214611 
L 303.549707 77.406134 
L 306.866064 77.615269 
L 310.182432 77.78918 
L 313.498783 78.015928 
L 316.815157 78.172227 
L 320.131583 78.170016 
L 323.448008 78.167804 
L 326.764434 78.165593 
L 330.080973 77.811137 
L 333.397535 77.386233 
L 335.357273 77.288059 
" clip-path="url(#p60ee43c90f)" style="fill: none; stroke-dasharray: 3,0; stroke-dashoffset: 0; stroke: #ff7f0e; stroke-width: 1.5"/>
   </g>
   <g id="line2d_31">
    <path d="M 61.529553 227.023037 
L 65.021735 222.091055 
L 68.038258 217.181105 
L 70.903945 212.545712 
L 73.618828 208.08801 
L 76.635314 203.291072 
L 79.350182 198.881804 
L 82.366605 194.2786 
L 85.383028 189.675396 
L 88.248642 185.266027 
L 91.265031 180.769377 
L 94.281382 176.388968 
L 97.297733 172.008559 
L 100.464831 167.628049 
L 103.782575 163.557414 
L 106.798899 159.260957 
L 110.116674 155.093454 
L 113.570113 150.780454 
L 116.831016 146.945603 
L 120.069843 143.075284 
L 123.688975 139.327338 
L 127.006797 135.014535 
L 130.625846 131.524903 
L 134.546257 128.438682 
L 138.165296 124.981339 
L 141.935129 121.375365 
L 145.85557 118.195506 
L 149.926628 115.415932 
L 153.846992 112.475012 
L 157.616513 109.83395 
L 161.687668 106.756642 
L 166.060136 104.233156 
L 170.13109 101.776473 
L 174.503611 99.089519 
L 178.725197 96.986708 
L 182.796086 94.729011 
L 187.017671 92.627406 
L 191.540687 90.719335 
L 195.762251 88.682309 
L 200.134495 86.851833 
L 204.506726 85.060103 
L 208.878916 83.397529 
L 213.251118 81.696209 
L 217.773998 80.207896 
L 222.146137 78.70031 
L 226.518274 77.199182 
L 231.041112 75.840026 
L 235.563908 74.610025 
L 240.086703 73.380025 
L 244.458769 72.098463 
L 248.981532 70.971788 
L 253.504232 70.038847 
L 258.026981 68.950918 
L 262.549643 68.134218 
L 267.072293 67.356265 
L 271.594942 66.578312 
L 276.117604 65.761612 
L 280.640178 65.21614 
L 285.46422 64.747961 
L 289.986769 64.279983 
L 294.509305 63.850752 
L 299.031829 63.460268 
L 303.554353 63.069783 
L 308.076864 62.718046 
L 312.900756 62.71483 
L 317.423292 62.285598 
L 321.945816 61.895114 
L 326.46834 61.50463 
L 330.990889 61.036652 
" clip-path="url(#p60ee43c90f)" style="fill: none; stroke-dasharray: 1.5,3; stroke-dashoffset: 0; stroke: #2ca02c; stroke-width: 1.5"/>
   </g>
   <g id="line2d_32">
    <path d="M 58.989146 230.503151 
L 62.006004 224.558776 
L 64.418988 221.355266 
L 67.737435 215.114805 
L 70.15041 211.935951 
L 73.468842 205.741282 
L 75.88182 202.555384 
L 79.20021 196.491045 
L 81.613154 193.407297 
L 84.931446 187.645889 
L 87.344414 184.491692 
L 90.964136 178.922643 
L 93.226461 175.446831 
L 96.393654 170.773567 
L 99.416714 166.477128 
L 101.637098 163.266895 
L 105.442411 158.546889 
L 109.061782 154.060907 
L 110.587639 151.495499 
L 112.252869 149.266088 
L 115.097587 145.609778 
L 117.942218 142.220864 
L 120.786908 138.653687 
L 124.047695 135.175363 
L 127.377895 131.51873 
L 130.225053 127.828071 
L 133.693335 124.403117 
L 135.772733 122.421666 
L 137.7145 120.525748 
L 140.559521 118.318401 
L 143.334278 116.53391 
L 146.802927 113.679372 
L 150.202134 111.092277 
L 153.697407 108.891025 
L 155.808425 107.146008 
L 160.633589 103.215266 
L 163.347702 101.135214 
L 168.172815 97.362982 
L 171.188311 95.619318 
L 176.31481 92.17956 
L 179.330274 90.533742 
L 184.758212 87.260121 
L 187.77364 85.727804 
L 193.201512 82.657702 
L 196.367657 81.216672 
L 201.644726 78.319466 
L 204.660183 76.697131 
L 210.389553 73.611172 
L 213.404826 72.558299 
L 218.83238 70.466654 
L 223.053592 69.516693 
L 227.878215 67.259112 
L 230.893651 65.701356 
L 236.622808 63.27292 
L 239.638084 62.208306 
L 245.36715 60.061666 
L 248.382392 59.102725 
L 254.111383 57.185043 
L 257.277361 56.261813 
L 263.157042 54.519567 
L 266.322973 53.737235 
L 272.202586 52.206335 
L 275.368473 51.561378 
L 281.248022 50.227735 
L 284.413853 49.753617 
L 290.293343 48.60138 
L 293.459146 48.217084 
L 299.338539 47.362493 
L 302.504307 47.087393 
L 308.685126 46.440426 
L 311.700132 46.209457 
L 317.730162 45.694682 
L 320.89587 45.602749 
L 326.775187 44.984162 
L 329.940924 44.802407 
L 334.614119 44.644304 
" clip-path="url(#p60ee43c90f)" style="fill: none; stroke-dasharray: 6,3,6,3; stroke-dashoffset: 0; stroke: #d62728; stroke-width: 1.5"/>
   </g>
   <g id="line2d_33">
    <path d="M 61.51533 222.011322 
L 64.353285 217.35577 
L 66.412694 213.332385 
L 69.677686 208.692599 
L 72.866906 202.501035 
L 75.408743 198.851468 
L 78.030902 194.788021 
L 81.312738 190.086336 
L 84.539694 185.358484 
L 87.696791 181.197972 
L 90.663144 177.376659 
L 93.981005 172.946231 
L 97.600463 168.19355 
L 100.918104 164.439935 
L 103.783297 161.329468 
L 107.402628 156.96803 
L 111.474288 152.333301 
L 114.791792 149.00238 
L 117.80766 146.111965 
L 121.577636 142.065245 
L 125.649121 137.96989 
L 128.966493 135.04405 
L 132.283843 132.188658 
L 136.506016 128.27593 
L 140.728176 124.398427 
L 144.045429 121.842443 
L 147.362717 119.180786 
L 151.886313 115.479203 
L 156.108371 111.91872 
L 159.425539 109.626919 
L 162.742769 107.141384 
L 166.311276 104.555879 
L 169.125872 102.519791 
L 172.694385 99.913739 
L 176.011564 97.586714 
L 179.32868 95.453424 
L 183.852111 92.265112 
L 188.375537 89.08938 
L 191.692647 86.973702 
L 195.009763 84.840411 
L 198.507775 82.707 
L 200.588455 81.543207 
L 204.96106 78.59905 
L 208.278119 76.641882 
L 211.595178 74.684714 
L 215.093167 72.621752 
L 217.1738 71.603259 
L 221.546343 68.848434 
L 224.863328 67.120225 
L 228.180353 65.26873 
L 231.497396 63.359996 
L 233.909646 62.418775 
L 238.432874 59.854942 
L 241.749791 58.33808 
L 245.066718 56.785993 
L 247.855961 55.454411 
L 250.946685 54.160787 
L 255.922061 51.882558 
L 259.238926 50.524205 
L 262.555773 49.218689 
L 265.344922 48.177709 
L 268.435584 47.07782 
L 273.410831 45.195866 
L 276.727593 44.154533 
L 280.044349 43.130813 
L 282.155011 42.483624 
L 286.074805 41.300153 
L 291.200631 39.935562 
L 294.517308 39.158413 
L 297.833984 38.381264 
L 300.095296 38.031915 
L 304.165798 36.970581 
L 309.29152 35.925526 
L 312.608151 35.289275 
L 315.924764 34.70586 
L 318.186082 34.338899 
L 322.407233 33.577291 
L 327.382231 32.461469 
L 330.698851 31.860442 
L 333.563233 31.253112 
" clip-path="url(#p60ee43c90f)" style="fill: none; stroke-dasharray: 6,3,1.5,3; stroke-dashoffset: 0; stroke: #9467bd; stroke-width: 1.5"/>
   </g>
   <g id="line2d_34">
    <path d="M 58.857183 224.226244 
L 61.253996 219.235984 
L 63.817876 215.569465 
L 66.080627 210.781102 
L 68.493883 206.735286 
L 71.05792 202.584431 
L 73.772747 198.298938 
L 76.487519 194.185653 
L 79.353085 189.921585 
L 82.36943 185.560549 
L 85.593028 181.271342 
L 88.703613 176.838276 
L 91.956518 173.48727 
L 95.314024 168.551722 
L 98.506164 164.423931 
L 101.823891 160.406133 
L 105.116334 156.879863 
L 108.459236 152.705168 
L 111.776837 149.074839 
L 115.094484 145.303612 
L 118.412062 141.743731 
L 121.729663 138.113402 
L 125.047219 134.62397 
L 128.364734 131.257824 
L 131.682261 127.856453 
L 134.999702 124.719266 
L 138.317212 121.370732 
L 141.634619 118.339218 
L 144.952055 115.219643 
L 148.269451 112.223354 
L 151.586824 109.297514 
L 154.904196 106.371673 
L 158.221609 103.322547 
L 161.538931 100.555217 
L 164.856315 97.594152 
L 168.173648 94.791597 
L 171.490964 92.041879 
L 174.808274 89.309773 
L 178.125561 86.648115 
L 181.442831 84.039295 
L 184.760084 81.483311 
L 188.077331 78.94494 
L 191.39455 76.494629 
L 194.711758 74.079543 
L 198.028953 71.699682 
L 201.346121 69.407881 
L 204.663294 67.098469 
L 207.980404 64.982791 
L 211.297526 62.831888 
L 214.614636 60.71621 
L 217.931718 58.688593 
L 221.248783 56.713813 
L 224.565824 54.809481 
L 227.882849 52.957986 
L 231.199845 51.194553 
L 234.51683 49.466343 
L 237.833792 47.808583 
L 241.150731 46.221272 
L 244.467647 44.704409 
L 247.784552 43.222771 
L 251.101434 41.811582 
L 254.418288 40.488454 
L 257.735118 39.235775 
L 261.051943 38.000708 
L 264.368734 36.871314 
L 267.68553 35.724308 
L 271.002275 34.735812 
L 274.319026 33.729704 
L 277.635748 32.811658 
L 280.952459 31.928835 
L 284.269152 31.098849 
L 287.585829 30.3217 
L 290.9025 29.562163 
L 294.219153 28.855463 
L 297.535796 28.183987 
L 300.852427 27.547736 
L 304.169063 26.893872 
L 307.485677 26.310458 
L 310.802302 25.691819 
L 314.11891 25.126016 
L 317.43553 24.524989 
L 320.752149 23.923963 
L 324.068774 23.305324 
L 327.385399 22.686684 
L 330.702024 22.068045 
L 334.018661 21.414182 
" clip-path="url(#p60ee43c90f)" style="fill: none; stroke-dasharray: 6,3,6,3,1.5,3; stroke-dashoffset: 0; stroke: #8c564b; stroke-width: 1.5"/>
   </g>
   <g id="patch_3">
    <path d="M 44.66 244.312 
L 44.66 10.8 
" style="fill: none; stroke: #000000; stroke-width: 0.8; stroke-linejoin: miter; stroke-linecap: square"/>
   </g>
   <g id="patch_4">
    <path d="M 349.2 244.312 
L 349.2 10.8 
" style="fill: none; stroke: #000000; stroke-width: 0.8; stroke-linejoin: miter; stroke-linecap: square"/>
   </g>
   <g id="patch_5">
    <path d="M 44.66 244.312 
L 349.2 244.312 
" style="fill: none; stroke: #000000; stroke-width: 0.8; stroke-linejoin: miter; stroke-linecap: square"/>
   </g>
   <g id="patch_6">
    <path d="M 44.66 10.8 
L 349.2 10.8 
" style="fill: none; stroke: #000000; stroke-width: 0.8; stroke-linejoin: miter; stroke-linecap: square"/>
   </g>
   <g id="legend_1">
    <g id="patch_7">
     <path d="M 252.86875 239.312 
L 342.2 239.312 
Q 344.2 239.312 344.2 237.312 
L 344.2 150.24325 
Q 344.2 148.24325 342.2 148.24325 
L 252.86875 148.24325 
Q 250.86875 148.24325 250.86875 150.24325 
L 250.86875 237.312 
Q 250.86875 239.312 252.86875 239.312 
z
" style="fill: #ffffff; opacity: 0.8; stroke: #cccccc; stroke-linejoin: miter"/>
    </g>
    <g id="line2d_35">
     <path d="M 254.86875 156.341688 
L 264.86875 156.341688 
L 274.86875 156.341688 
" style="fill: none; stroke-dasharray: 6,3,1.5,3,1.5,3; stroke-dashoffset: 0; stroke: #1f77b4; stroke-width: 1.5"/>
    </g>
    <g id="text_17">
     <!-- Proposed -->
     <g transform="translate(282.86875 159.841688) scale(0.1 -0.1)">
      <defs>
       <path id="DejaVuSans-50" d="M 1259 4147 
L 1259 2394 
L 2053 2394 
Q 2494 2394 2734 2622 
Q 2975 2850 2975 3272 
Q 2975 3691 2734 3919 
Q 2494 4147 2053 4147 
L 1259 4147 
z
M 628 4666 
L 2053 4666 
Q 2838 4666 3239 4311 
Q 3641 3956 3641 3272 
Q 3641 2581 3239 2228 
Q 2838 1875 2053 1875 
L 1259 1875 
L 1259 0 
L 628 0 
L 628 4666 
z
" transform="scale(0.015625)"/>
       <path id="DejaVuSans-6f" d="M 1959 3097 
Q 1497 3097 1228 2736 
Q 959 2375 959 1747 
Q 959 1119 1226 758 
Q 1494 397 1959 397 
Q 2419 397 2687 759 
Q 2956 1122 2956 1747 
Q 2956 2369 2687 2733 
Q 2419 3097 1959 3097 
z
M 1959 3584 
Q 2709 3584 3137 3096 
Q 3566 2609 3566 1747 
Q 3566 888 3137 398 
Q 2709 -91 1959 -91 
Q 1206 -91 779 398 
Q 353 888 353 1747 
Q 353 2609 779 3096 
Q 1206 3584 1959 3584 
z
" transform="scale(0.015625)"/>
       <path id="DejaVuSans-70" d="M 1159 525 
L 1159 -1331 
L 581 -1331 
L 581 3500 
L 1159 3500 
L 1159 2969 
Q 1341 3281 1617 3432 
Q 1894 3584 2278 3584 
Q 2916 3584 3314 3078 
Q 3713 2572 3713 1747 
Q 3713 922 3314 415 
Q 2916 -91 2278 -91 
Q 1894 -91 1617 61 
Q 1341 213 1159 525 
z
M 3116 1747 
Q 3116 2381 2855 2742 
Q 2594 3103 2138 3103 
Q 1681 3103 1420 2742 
Q 1159 2381 1159 1747 
Q 1159 1113 1420 752 
Q 1681 391 2138 391 
Q 2594 391 2855 752 
Q 3116 1113 3116 1747 
z
" transform="scale(0.015625)"/>
       <path id="DejaVuSans-73" d="M 2834 3397 
L 2834 2853 
Q 2591 2978 2328 3040 
Q 2066 3103 1784 3103 
Q 1356 3103 1142 2972 
Q 928 2841 928 2578 
Q 928 2378 1081 2264 
Q 1234 2150 1697 2047 
L 1894 2003 
Q 2506 1872 2764 1633 
Q 3022 1394 3022 966 
Q 3022 478 2636 193 
Q 2250 -91 1575 -91 
Q 1294 -91 989 -36 
Q 684 19 347 128 
L 347 722 
Q 666 556 975 473 
Q 1284 391 1588 391 
Q 1994 391 2212 530 
Q 2431 669 2431 922 
Q 2431 1156 2273 1281 
Q 2116 1406 1581 1522 
L 1381 1569 
Q 847 1681 609 1914 
Q 372 2147 372 2553 
Q 372 3047 722 3315 
Q 1072 3584 1716 3584 
Q 2034 3584 2315 3537 
Q 2597 3491 2834 3397 
z
" transform="scale(0.015625)"/>
       <path id="DejaVuSans-65" d="M 3597 1894 
L 3597 1613 
L 953 1613 
Q 991 1019 1311 708 
Q 1631 397 2203 397 
Q 2534 397 2845 478 
Q 3156 559 3463 722 
L 3463 178 
Q 3153 47 2828 -22 
Q 2503 -91 2169 -91 
Q 1331 -91 842 396 
Q 353 884 353 1716 
Q 353 2575 817 3079 
Q 1281 3584 2069 3584 
Q 2775 3584 3186 3129 
Q 3597 2675 3597 1894 
z
M 3022 2063 
Q 3016 2534 2758 2815 
Q 2500 3097 2075 3097 
Q 1594 3097 1305 2825 
Q 1016 2553 972 2059 
L 3022 2063 
z
" transform="scale(0.015625)"/>
       <path id="DejaVuSans-64" d="M 2906 2969 
L 2906 4863 
L 3481 4863 
L 3481 0 
L 2906 0 
L 2906 525 
Q 2725 213 2448 61 
Q 2172 -91 1784 -91 
Q 1150 -91 751 415 
Q 353 922 353 1747 
Q 353 2572 751 3078 
Q 1150 3584 1784 3584 
Q 2172 3584 2448 3432 
Q 2725 3281 2906 2969 
z
M 947 1747 
Q 947 1113 1208 752 
Q 1469 391 1925 391 
Q 2381 391 2643 752 
Q 2906 1113 2906 1747 
Q 2906 2381 2643 2742 
Q 2381 3103 1925 3103 
Q 1469 3103 1208 2742 
Q 947 2381 947 1747 
z
" transform="scale(0.015625)"/>
      </defs>
      <use xlink:href="#DejaVuSans-50"/>
      <use xlink:href="#DejaVuSans-72" x="58.552734"/>
      <use xlink:href="#DejaVuSans-6f" x="97.416016"/>
      <use xlink:href="#DejaVuSans-70" x="158.597656"/>
      <use xlink:href="#DejaVuSans-6f" x="222.074219"/>
      <use xlink:href="#DejaVuSans-73" x="283.255859"/>
      <use xlink:href="#DejaVuSans-65" x="335.355469"/>
      <use xlink:href="#DejaVuSans-64" x="396.878906"/>
     </g>
    </g>
    <g id="line2d_36">
     <path d="M 254.86875 171.019813 
L 264.86875 171.019813 
L 274.86875 171.019813 
" style="fill: none; stroke-dasharray: 3,0; stroke-dashoffset: 0; stroke: #ff7f0e; stroke-width: 1.5"/>
    </g>
    <g id="text_18">
     <!-- EffNet-B0 -->
     <g transform="translate(282.86875 174.519813) scale(0.1 -0.1)">
      <defs>
       <path id="DejaVuSans-45" d="M 628 4666 
L 3578 4666 
L 3578 4134 
L 1259 4134 
L 1259 2753 
L 3481 2753 
L 3481 2222 
L 1259 2222 
L 1259 531 
L 3634 531 
L 3634 0 
L 628 0 
L 628 4666 
z
" transform="scale(0.015625)"/>
       <path id="DejaVuSans-66" d="M 2375 4863 
L 2375 4384 
L 1825 4384 
Q 1516 4384 1395 4259 
Q 1275 4134 1275 3809 
L 1275 3500 
L 2222 3500 
L 2222 3053 
L 1275 3053 
L 1275 0 
L 697 0 
L 697 3053 
L 147 3053 
L 147 3500 
L 697 3500 
L 697 3744 
Q 697 4328 969 4595 
Q 1241 4863 1831 4863 
L 2375 4863 
z
" transform="scale(0.015625)"/>
       <path id="DejaVuSans-4e" d="M 628 4666 
L 1478 4666 
L 3547 763 
L 3547 4666 
L 4159 4666 
L 4159 0 
L 3309 0 
L 1241 3903 
L 1241 0 
L 628 0 
L 628 4666 
z
" transform="scale(0.015625)"/>
       <path id="DejaVuSans-74" d="M 1172 4494 
L 1172 3500 
L 2356 3500 
L 2356 3053 
L 1172 3053 
L 1172 1153 
Q 1172 725 1289 603 
Q 1406 481 1766 481 
L 2356 481 
L 2356 0 
L 1766 0 
Q 1100 0 847 248 
Q 594 497 594 1153 
L 594 3053 
L 172 3053 
L 172 3500 
L 594 3500 
L 594 4494 
L 1172 4494 
z
" transform="scale(0.015625)"/>
       <path id="DejaVuSans-2d" d="M 313 2009 
L 1997 2009 
L 1997 1497 
L 313 1497 
L 313 2009 
z
" transform="scale(0.015625)"/>
       <path id="DejaVuSans-42" d="M 1259 2228 
L 1259 519 
L 2272 519 
Q 2781 519 3026 730 
Q 3272 941 3272 1375 
Q 3272 1813 3026 2020 
Q 2781 2228 2272 2228 
L 1259 2228 
z
M 1259 4147 
L 1259 2741 
L 2194 2741 
Q 2656 2741 2882 2914 
Q 3109 3088 3109 3444 
Q 3109 3797 2882 3972 
Q 2656 4147 2194 4147 
L 1259 4147 
z
M 628 4666 
L 2241 4666 
Q 2963 4666 3353 4366 
Q 3744 4066 3744 3513 
Q 3744 3084 3544 2831 
Q 3344 2578 2956 2516 
Q 3422 2416 3680 2098 
Q 3938 1781 3938 1306 
Q 3938 681 3513 340 
Q 3088 0 2303 0 
L 628 0 
L 628 4666 
z
" transform="scale(0.015625)"/>
      </defs>
      <use xlink:href="#DejaVuSans-45"/>
      <use xlink:href="#DejaVuSans-66" x="63.183594"/>
      <use xlink:href="#DejaVuSans-66" x="98.388672"/>
      <use xlink:href="#DejaVuSans-4e" x="133.59375"/>
      <use xlink:href="#DejaVuSans-65" x="208.398438"/>
      <use xlink:href="#DejaVuSans-74" x="269.921875"/>
      <use xlink:href="#DejaVuSans-2d" x="309.130859"/>
      <use xlink:href="#DejaVuSans-42" x="341.589844"/>
      <use xlink:href="#DejaVuSans-30" x="410.193359"/>
     </g>
    </g>
    <g id="line2d_37">
     <path d="M 254.86875 185.697938 
L 264.86875 185.697938 
L 274.86875 185.697938 
" style="fill: none; stroke-dasharray: 1.5,3; stroke-dashoffset: 0; stroke: #2ca02c; stroke-width: 1.5"/>
    </g>
    <g id="text_19">
     <!-- EffNet-B2 -->
     <g transform="translate(282.86875 189.197938) scale(0.1 -0.1)">
      <use xlink:href="#DejaVuSans-45"/>
      <use xlink:href="#DejaVuSans-66" x="63.183594"/>
      <use xlink:href="#DejaVuSans-66" x="98.388672"/>
      <use xlink:href="#DejaVuSans-4e" x="133.59375"/>
      <use xlink:href="#DejaVuSans-65" x="208.398438"/>
      <use xlink:href="#DejaVuSans-74" x="269.921875"/>
      <use xlink:href="#DejaVuSans-2d" x="309.130859"/>
      <use xlink:href="#DejaVuSans-42" x="341.589844"/>
      <use xlink:href="#DejaVuSans-32" x="410.193359"/>
     </g>
    </g>
    <g id="line2d_38">
     <path d="M 254.86875 200.376063 
L 264.86875 200.376063 
L 274.86875 200.376063 
" style="fill: none; stroke-dasharray: 6,3,6,3; stroke-dashoffset: 0; stroke: #d62728; stroke-width: 1.5"/>
    </g>
    <g id="text_20">
     <!-- EffNet-B4 -->
     <g transform="translate(282.86875 203.876063) scale(0.1 -0.1)">
      <use xlink:href="#DejaVuSans-45"/>
      <use xlink:href="#DejaVuSans-66" x="63.183594"/>
      <use xlink:href="#DejaVuSans-66" x="98.388672"/>
      <use xlink:href="#DejaVuSans-4e" x="133.59375"/>
      <use xlink:href="#DejaVuSans-65" x="208.398438"/>
      <use xlink:href="#DejaVuSans-74" x="269.921875"/>
      <use xlink:href="#DejaVuSans-2d" x="309.130859"/>
      <use xlink:href="#DejaVuSans-42" x="341.589844"/>
      <use xlink:href="#DejaVuSans-34" x="410.193359"/>
     </g>
    </g>
    <g id="line2d_39">
     <path d="M 254.86875 215.054188 
L 264.86875 215.054188 
L 274.86875 215.054188 
" style="fill: none; stroke-dasharray: 6,3,1.5,3; stroke-dashoffset: 0; stroke: #9467bd; stroke-width: 1.5"/>
    </g>
    <g id="text_21">
     <!-- XCiT-Nano -->
     <g transform="translate(282.86875 218.554188) scale(0.1 -0.1)">
      <defs>
       <path id="DejaVuSans-58" d="M 403 4666 
L 1081 4666 
L 2241 2931 
L 3406 4666 
L 4084 4666 
L 2584 2425 
L 4184 0 
L 3506 0 
L 2194 1984 
L 872 0 
L 191 0 
L 1856 2491 
L 403 4666 
z
" transform="scale(0.015625)"/>
       <path id="DejaVuSans-43" d="M 4122 4306 
L 4122 3641 
Q 3803 3938 3442 4084 
Q 3081 4231 2675 4231 
Q 1875 4231 1450 3742 
Q 1025 3253 1025 2328 
Q 1025 1406 1450 917 
Q 1875 428 2675 428 
Q 3081 428 3442 575 
Q 3803 722 4122 1019 
L 4122 359 
Q 3791 134 3420 21 
Q 3050 -91 2638 -91 
Q 1578 -91 968 557 
Q 359 1206 359 2328 
Q 359 3453 968 4101 
Q 1578 4750 2638 4750 
Q 3056 4750 3426 4639 
Q 3797 4528 4122 4306 
z
" transform="scale(0.015625)"/>
       <path id="DejaVuSans-69" d="M 603 3500 
L 1178 3500 
L 1178 0 
L 603 0 
L 603 3500 
z
M 603 4863 
L 1178 4863 
L 1178 4134 
L 603 4134 
L 603 4863 
z
" transform="scale(0.015625)"/>
       <path id="DejaVuSans-54" d="M -19 4666 
L 3928 4666 
L 3928 4134 
L 2272 4134 
L 2272 0 
L 1638 0 
L 1638 4134 
L -19 4134 
L -19 4666 
z
" transform="scale(0.015625)"/>
       <path id="DejaVuSans-6e" d="M 3513 2113 
L 3513 0 
L 2938 0 
L 2938 2094 
Q 2938 2591 2744 2837 
Q 2550 3084 2163 3084 
Q 1697 3084 1428 2787 
Q 1159 2491 1159 1978 
L 1159 0 
L 581 0 
L 581 3500 
L 1159 3500 
L 1159 2956 
Q 1366 3272 1645 3428 
Q 1925 3584 2291 3584 
Q 2894 3584 3203 3211 
Q 3513 2838 3513 2113 
z
" transform="scale(0.015625)"/>
      </defs>
      <use xlink:href="#DejaVuSans-58"/>
      <use xlink:href="#DejaVuSans-43" x="61.255859"/>
      <use xlink:href="#DejaVuSans-69" x="131.080078"/>
      <use xlink:href="#DejaVuSans-54" x="158.863281"/>
      <use xlink:href="#DejaVuSans-2d" x="210.822266"/>
      <use xlink:href="#DejaVuSans-4e" x="246.90625"/>
      <use xlink:href="#DejaVuSans-61" x="321.710938"/>
      <use xlink:href="#DejaVuSans-6e" x="382.990234"/>
      <use xlink:href="#DejaVuSans-6f" x="446.369141"/>
     </g>
    </g>
    <g id="line2d_40">
     <path d="M 254.86875 229.732313 
L 264.86875 229.732313 
L 274.86875 229.732313 
" style="fill: none; stroke-dasharray: 6,3,6,3,1.5,3; stroke-dashoffset: 0; stroke: #8c564b; stroke-width: 1.5"/>
    </g>
    <g id="text_22">
     <!-- XCiT-Tiny12 -->
     <g transform="translate(282.86875 233.232313) scale(0.1 -0.1)">
      <use xlink:href="#DejaVuSans-58"/>
      <use xlink:href="#DejaVuSans-43" x="61.255859"/>
      <use xlink:href="#DejaVuSans-69" x="131.080078"/>
      <use xlink:href="#DejaVuSans-54" x="158.863281"/>
      <use xlink:href="#DejaVuSans-2d" x="210.822266"/>
      <use xlink:href="#DejaVuSans-54" x="237.78125"/>
      <use xlink:href="#DejaVuSans-69" x="295.740234"/>
      <use xlink:href="#DejaVuSans-6e" x="323.523438"/>
      <use xlink:href="#DejaVuSans-79" x="386.902344"/>
      <use xlink:href="#DejaVuSans-31" x="446.082031"/>
      <use xlink:href="#DejaVuSans-32" x="509.705078"/>
     </g>
    </g>
   </g>
  </g>
 </g>
 <defs>
  <clipPath id="p60ee43c90f">
   <rect x="44.66" y="10.8" width="304.54" height="233.512"/>
  </clipPath>
 </defs>
</svg>
