<?xml version="1.0" encoding="utf-8" standalone="no"?>
<!DOCTYPE svg PUBLIC "-//W3C//DTD SVG 1.1//EN"
  "http://www.w3.org/Graphics/SVG/1.1/DTD/svg11.dtd">
<svg xmlns:xlink="http://www.w3.org/1999/xlink" width="1080pt" height="720pt" viewBox="0 0 1080 720" xmlns="http://www.w3.org/2000/svg" version="1.1">
 <metadata>
  <rdf:RDF xmlns:dc="http://purl.org/dc/elements/1.1/" xmlns:cc="http://creativecommons.org/ns#" xmlns:rdf="http://www.w3.org/1999/02/22-rdf-syntax-ns#">
   <cc:Work>
    <dc:type rdf:resource="http://purl.org/dc/dcmitype/StillImage"/>
    <dc:date>2024-12-04T22:18:33.350368</dc:date>
    <dc:format>image/svg+xml</dc:format>
    <dc:creator>
     <cc:Agent>
      <dc:title>Matplotlib v3.9.1, https://matplotlib.org/</dc:title>
     </cc:Agent>
    </dc:creator>
   </cc:Work>
  </rdf:RDF>
 </metadata>
 <defs>
  <style type="text/css">*{stroke-linejoin: round; stroke-linecap: butt}</style>
 </defs>
 <g id="figure_1">
  <g id="patch_1">
   <path d="M 0 720 
L 1080 720 
L 1080 0 
L 0 0 
z
" style="fill: #ffffff"/>
  </g>
  <g id="axes_1">
   <g id="patch_2">
    <path d="M 10.8 709.2 
L 1069.2 709.2 
L 1069.2 10.8 
L 10.8 10.8 
z
" style="fill: #ffffff"/>
   </g>
   <g id="matplotlib.axis_1"/>
   <g id="matplotlib.axis_2"/>
   <g id="line2d_1">
    <path d="M 58.909091 197.733741 
L 66.485326 210.18756 
L 74.06156 61.697208 
L 81.637795 238.225657 
L 89.21403 105.147039 
L 96.790265 173.664528 
L 104.3665 114.242291 
L 111.942734 214.687807 
L 119.518969 86.268888 
L 127.095204 169.141158 
L 134.671439 277.14646 
L 142.247674 175.434667 
L 149.823908 179.854337 
L 157.400143 234.323241 
L 164.976378 115.594952 
L 172.552613 93.86153 
L 180.128848 77.261002 
L 187.705082 155.95299 
L 195.281317 119.298155 
L 202.857552 157.33666 
L 210.433787 113.537894 
L 218.010021 196.877134 
L 225.586256 223.273273 
L 233.162491 205.345471 
L 240.738726 88.471556 
L 248.314961 155.98083 
L 255.891195 139.652773 
L 263.46743 186.042374 
L 271.043665 71.190171 
L 278.6199 220.786289 
L 286.196135 173.011133 
L 293.772369 194.19716 
L 301.348604 232.111935 
L 308.924839 116.140083 
L 316.501074 288.15531 
L 324.077309 217.210137 
L 331.653543 131.57943 
L 339.229778 213.911925 
L 346.806013 171.388678 
L 354.382248 167.593508 
L 361.958482 324.332689 
L 369.534717 252.442901 
L 377.110952 203.177923 
L 384.687187 182.481989 
L 392.263422 403.762873 
L 399.839656 115.135074 
L 407.415891 212.957503 
L 414.992126 205.300619 
L 422.568361 180.545644 
L 430.144596 159.492439 
L 437.72083 113.030146 
L 445.297065 199.651188 
L 452.8733 256.473046 
L 460.449535 187.468896 
L 468.02577 120.390567 
L 475.602004 301.777817 
L 483.178239 155.333093 
L 490.754474 103.420017 
L 498.330709 222.769373 
L 505.906943 129.149106 
L 513.483178 197.826501 
L 521.059413 158.083683 
L 528.635648 364.299316 
L 536.211883 207.677943 
L 543.788117 141.162814 
L 551.364352 130.5877 
L 558.940587 278.524773 
L 566.516822 221.146428 
L 574.093057 192.79991 
L 581.669291 199.855909 
L 589.245526 229.040814 
L 596.821761 162.621991 
L 604.397996 237.001102 
L 611.97423 42.545455 
L 619.550465 119.489673 
L 627.1267 200.484973 
L 634.702935 217.54734 
L 642.27917 191.630996 
L 649.855404 202.571493 
L 657.431639 122.861972 
L 665.007874 158.272938 
L 672.584109 48.162935 
L 680.160344 197.096453 
L 687.736578 282.461366 
L 695.312813 56.853044 
L 702.889048 228.826134 
L 710.465283 298.522798 
L 718.041518 206.863849 
L 725.617752 216.914579 
L 733.193987 128.403591 
L 740.770222 296.143776 
L 748.346457 171.182523 
L 755.922691 129.36537 
L 763.498926 197.271336 
L 771.075161 197.657541 
L 778.651396 181.95655 
L 786.227631 132.371494 
L 793.803865 77.229202 
L 801.3801 116.435452 
L 808.956335 243.998366 
L 816.53257 109.86072 
L 824.108805 120.921439 
L 831.685039 233.206648 
L 839.261274 91.466024 
L 846.837509 265.66864 
L 854.413744 114.163827 
L 861.989979 78.292644 
L 869.566213 203.376382 
L 877.142448 79.729389 
L 884.718683 272.279549 
L 892.294918 162.966928 
L 899.871152 140.43684 
L 907.447387 137.489526 
L 915.023622 147.364657 
L 922.599857 294.686547 
L 930.176092 221.810348 
L 937.752326 210.345468 
L 945.328561 87.120328 
L 952.904796 194.069016 
L 960.481031 91.828954 
L 968.057266 323.782088 
L 975.6335 86.070165 
L 983.209735 143.283133 
L 990.78597 101.948529 
L 998.362205 336.581334 
L 1005.93844 184.584503 
L 1013.514674 159.226946 
L 1021.090909 65.252047 
L 1021.090909 65.252047 
" clip-path="url(#p569a9118c9)" style="fill: none; stroke: #1f77b4; stroke-width: 6; stroke-linecap: square"/>
   </g>
   <g id="line2d_2">
    <path d="M 58.909091 382.369408 
L 66.485326 677.454545 
L 74.06156 465.096709 
L 81.637795 444.21567 
L 89.21403 594.416711 
L 96.790265 477.294127 
L 104.3665 440.606586 
L 111.942734 465.453642 
L 119.518969 411.36521 
L 127.095204 497.90824 
L 134.671439 477.422385 
L 142.247674 603.541612 
L 149.823908 564.257917 
L 157.400143 415.748591 
L 164.976378 476.595201 
L 172.552613 384.55876 
L 180.128848 442.707667 
L 187.705082 374.110092 
L 195.281317 398.919425 
L 202.857552 334.06387 
L 210.433787 359.885229 
L 218.010021 374.380489 
L 225.586256 456.36767 
L 233.162491 653.460476 
L 240.738726 454.454524 
L 248.314961 478.897268 
L 255.891195 355.80876 
L 263.46743 452.325529 
L 271.043665 492.493143 
L 278.6199 580.446325 
L 286.196135 522.492595 
L 293.772369 475.772166 
L 301.348604 402.014198 
L 308.924839 431.040178 
L 316.501074 450.397596 
L 324.077309 481.82176 
L 331.653543 350.480273 
L 339.229778 366.62877 
L 346.806013 388.375847 
L 354.382248 441.040247 
L 361.958482 477.360595 
L 369.534717 450.528267 
L 377.110952 379.140871 
L 384.687187 555.366519 
L 392.263422 558.953272 
L 399.839656 499.665516 
L 407.415891 553.551679 
L 414.992126 459.845253 
L 422.568361 481.747145 
L 430.144596 524.72563 
L 437.72083 438.738783 
L 445.297065 510.542638 
L 452.8733 523.438002 
L 460.449535 405.463187 
L 468.02577 402.526925 
L 475.602004 422.813077 
L 483.178239 370.321071 
L 490.754474 465.232964 
L 498.330709 413.654602 
L 505.906943 516.755798 
L 513.483178 421.360526 
L 521.059413 483.459077 
L 528.635648 529.759577 
L 536.211883 263.958141 
L 543.788117 386.977164 
L 551.364352 395.181405 
L 558.940587 499.277349 
L 566.516822 474.513057 
L 574.093057 387.82502 
L 581.669291 414.614796 
L 589.245526 480.368907 
L 596.821761 486.128639 
L 604.397996 573.040523 
L 611.97423 447.58265 
L 619.550465 542.4787 
L 627.1267 340.859771 
L 634.702935 514.719148 
L 649.855404 388.786799 
L 657.431639 454.65453 
L 665.007874 430.256224 
L 672.584109 384.9381 
L 680.160344 588.984261 
L 687.736578 635.691562 
L 695.312813 402.275088 
L 702.889048 449.884868 
L 710.465283 394.845069 
L 718.041518 521.4476 
L 725.617752 477.347392 
L 733.193987 411.239744 
L 740.770222 478.40559 
L 748.346457 576.962706 
L 755.922691 404.263453 
L 763.498926 529.410189 
L 771.075161 443.916529 
L 778.651396 540.311756 
L 786.227631 369.20742 
L 793.803865 486.626504 
L 801.3801 579.82986 
L 808.956335 430.705275 
L 816.53257 377.599973 
L 824.108805 339.011583 
L 831.685039 516.123037 
L 839.261274 370.502819 
L 846.837509 443.538321 
L 854.413744 544.363328 
L 861.989979 331.292155 
L 869.566213 447.938526 
L 877.142448 413.948311 
L 884.718683 381.531058 
L 892.294918 456.274495 
L 899.871152 442.072793 
L 907.447387 268.740025 
L 915.023622 407.394817 
L 922.599857 430.038413 
L 930.176092 445.329849 
L 937.752326 479.825096 
L 945.328561 519.089024 
L 952.904796 500.558262 
L 960.481031 398.151315 
L 968.057266 325.866948 
L 975.6335 424.925248 
L 983.209735 487.328901 
L 990.78597 473.25357 
L 998.362205 372.496465 
L 1005.93844 355.257178 
L 1013.514674 330.55294 
L 1021.090909 490.535409 
L 1021.090909 490.535409 
" clip-path="url(#p569a9118c9)" style="fill: none; stroke: #ff7f0e; stroke-width: 6; stroke-linecap: square"/>
   </g>
  </g>
 </g>
 <defs>
  <clipPath id="p569a9118c9">
   <rect x="10.8" y="10.8" width="1058.4" height="698.4"/>
  </clipPath>
 </defs>
</svg>
